<svg xmlns="http://www.w3.org/2000/svg" width="28" height="28" viewBox="0 0 28 28" fill="none"><rect width="28" height="28" rx="14" fill="#007AFF"/><path d="M13.996 21c.565 0 .954-.375.954-.933v-8.709l-.069-1.595 1.808 1.97 1.724 1.646a.988.988 0 0 0 .68.272c.518 0 .907-.367.907-.882a.91.91 0 0 0-.297-.661l-4.997-4.821a1.018 1.018 0 0 0-.71-.287 1 1 0 0 0-.702.287l-4.996 4.82A.905.905 0 0 0 8 12.77c0 .514.39.882.908.882.274 0 .503-.11.679-.272l1.716-1.646 1.808-1.97-.06 1.595v8.709c0 .558.38.933.945.933Z" fill="#fff"/></svg>